<?xml version="1.0" encoding="UTF-8" standalone="no"?>
<!-- Created with Inkscape (http://www.inkscape.org/) -->
<svg xmlns:dc="http://purl.org/dc/elements/1.1/" xmlns:cc="http://creativecommons.org/ns#" xmlns:rdf="http://www.w3.org/1999/02/22-rdf-syntax-ns#" xmlns:svg="http://www.w3.org/2000/svg" xmlns="http://www.w3.org/2000/svg" xmlns:sodipodi="http://sodipodi.sourceforge.net/DTD/sodipodi-0.dtd" xmlns:inkscape="http://www.inkscape.org/namespaces/inkscape" width="1336.3438" height="1217.8438" id="svg2985" version="1.1" inkscape:version="0.48.2 r9819" sodipodi:docname="Digital_Tree.svg">
  <defs id="defs3"/>
  <sodipodi:namedview inkscape:document-units="mm" id="base" pagecolor="#ffffff" bordercolor="#666666" borderopacity="1.0" inkscape:pageopacity="0.0" inkscape:pageshadow="2" inkscape:zoom="0.50824224" inkscape:cx="668.17175" inkscape:cy="608.88511" inkscape:current-layer="layer1" showgrid="false" showguides="true" inkscape:guide-bbox="true" units="mm" fit-margin-top="0" fit-margin-left="0" fit-margin-right="0" fit-margin-bottom="0" inkscape:window-width="1440" inkscape:window-height="838" inkscape:window-x="-8" inkscape:window-y="-8" inkscape:window-maximized="1">
    <sodipodi:guide orientation="0,1" position="193.85714,15.548527" id="guide2991"/>
  </sodipodi:namedview>
  <metadata id="metadata4">
    <rdf:RDF>
      <cc:Work rdf:about="">
        <dc:format>image/svg+xml</dc:format>
        <dc:type rdf:resource="http://purl.org/dc/dcmitype/StillImage"/>
        <dc:title/>
      </cc:Work>
    </rdf:RDF>
  </metadata>
  <g inkscape:label="Layer 1" inkscape:groupmode="layer" id="layer1" transform="translate(571,484.21875)">
    <rect style="fill:#eeffaa;stroke:#ffcc00;stroke-width:31.10336493999999900;stroke-linecap:round;stroke-miterlimit:4;stroke-opacity:1;stroke-dasharray:none" id="rect3849" width="1305.246" height="1186.7465" x="-555.45123" y="-468.67001"/>
    <path style="fill:none;stroke:#ffcc00;stroke-width:31.25000000000000000;stroke-linecap:butt;stroke-linejoin:miter;stroke-miterlimit:4;stroke-opacity:1;stroke-dasharray:none" d="m 84.571429,718.07647 0,-631.428573 -299.562249,-172.952346 -87.62706,0" id="path2999" inkscape:connector-curvature="0"/>
    <path style="fill:none;stroke:#ffcc00;stroke-width:31.25000000000000000;stroke-linecap:butt;stroke-linejoin:miter;stroke-miterlimit:4;stroke-opacity:1;stroke-dasharray:none" d="m 35.714286,718.07647 0,-517.14286 -109.883696,-63.44138 -111.40648,0" id="path3001" inkscape:connector-curvature="0"/>
    <path style="fill:none;stroke:#ffcc00;stroke-width:31.25000000000000000;stroke-linecap:butt;stroke-linejoin:miter;stroke-miterlimit:4;stroke-opacity:1;stroke-dasharray:none" d="m -16.571429,718.07647 0,-325.71429 -170.546691,-98.46518 -69.62459,69.62459" id="path3003" inkscape:connector-curvature="0"/>
    <path style="fill:none;stroke:#ffcc00;stroke-width:31.25000000000000000;stroke-linecap:butt;stroke-linejoin:miter;stroke-miterlimit:4;stroke-opacity:1;stroke-dasharray:none" d="m 242.85714,718.07647 c 0,-405.71429 0,-405.71429 0,-405.71429 l 103.57143,-103.57143 125.05912,0 52.37738,90.72028" id="path2993" inkscape:connector-curvature="0" sodipodi:nodetypes="ccc"/>
    <g id="g3783" style="stroke-width:31.25000000000000000;stroke-miterlimit:4;stroke-dasharray:none;stroke:#ffcc00">
      <path inkscape:connector-curvature="0" id="path2995" d="m 191.42857,718.07647 0,-557.14286 74.28572,-74.285713 92.54096,0" style="fill:none;stroke:#ffcc00;stroke-width:31.25000000000000000;stroke-linecap:butt;stroke-linejoin:miter;stroke-miterlimit:4;stroke-opacity:1;stroke-dasharray:none"/>
      <path inkscape:connector-curvature="0" id="path3781" d="m 261.94969,84.35249 0,-84.9942308" style="fill:none;stroke:#ffcc00;stroke-width:31.25000000000000000;stroke-linecap:butt;stroke-linejoin:miter;stroke-miterlimit:4;stroke-opacity:1;stroke-dasharray:none"/>
    </g>
    <g id="g3789" style="stroke-width:31.25000000000000000;stroke-miterlimit:4;stroke-dasharray:none;stroke:#ffcc00" transform="translate(-4,0)">
      <path inkscape:connector-curvature="0" id="path2997" d="m 142.57143,718.07647 0,-805.142859 57.14286,-57.142861 -101.742675,-101.74267" style="fill:none;stroke:#ffcc00;stroke-width:31.25000000000000000;stroke-linecap:butt;stroke-linejoin:miter;stroke-miterlimit:4;stroke-opacity:1;stroke-dasharray:none" sodipodi:nodetypes="cccc"/>
      <path inkscape:connector-curvature="0" id="path3787" d="m 198.67421,-143.23355 98.24602,-98.24602" style="fill:none;stroke:#ffcc00;stroke-width:31.25000000000000000;stroke-linecap:butt;stroke-linejoin:miter;stroke-miterlimit:4;stroke-opacity:1;stroke-dasharray:none"/>
      <path style="fill:none;stroke:#ffcc00;stroke-width:31.25000000000000000;stroke-linecap:butt;stroke-linejoin:miter;stroke-miterlimit:4;stroke-opacity:1;stroke-dasharray:none" d="m 478.06854,206.99314 98.24602,-98.24602" id="path3851" inkscape:connector-curvature="0"/>
    </g>
    <path style="fill:none;stroke:#ffcc00;stroke-width:31.25000000000000000;stroke-linecap:butt;stroke-linejoin:miter;stroke-miterlimit:4;stroke-opacity:1;stroke-dasharray:none" d="m -141.52784,-40.16211 67.288004,-116.54624" id="path3793" inkscape:connector-curvature="0"/>
    <path style="fill:none;stroke:#ffcc00;stroke-width:31.25000000000000000;stroke-linecap:butt;stroke-linejoin:miter;stroke-miterlimit:4;stroke-opacity:1;stroke-dasharray:none" d="m -214.21266,-88.992981 0,-93.183559" id="path3795" inkscape:connector-curvature="0"/>
    <path sodipodi:type="arc" style="fill:none;stroke:#ffcc00;stroke-width:35.79793166999999700;stroke-linecap:round;stroke-miterlimit:4;stroke-opacity:1;stroke-dasharray:none" id="path3813" sodipodi:cx="-1142.1215" sodipodi:cy="112.41277" sodipodi:rx="43.753666" sodipodi:ry="43.753666" d="m -1098.3678,112.41277 c 0,24.16449 -19.5892,43.75367 -43.7537,43.75367 -24.1644,0 -43.7536,-19.58918 -43.7536,-43.75367 0,-24.164479 19.5892,-43.753663 43.7536,-43.753663 24.1645,0 43.7537,19.589184 43.7537,43.753663 z" transform="matrix(0.87295546,0,0,0.87295546,782.77914,-310.09919)"/>
    <path transform="matrix(0.87295546,0,0,0.87295546,659.06188,-183.36444)" d="m -1098.3678,112.41277 c 0,24.16449 -19.5892,43.75367 -43.7537,43.75367 -24.1644,0 -43.7536,-19.58918 -43.7536,-43.75367 0,-24.164479 19.5892,-43.753663 43.7536,-43.753663 24.1645,0 43.7537,19.589184 43.7537,43.753663 z" sodipodi:ry="43.753666" sodipodi:rx="43.753666" sodipodi:cy="112.41277" sodipodi:cx="-1142.1215" id="path3815" style="fill:none;stroke:#ffcc00;stroke-width:35.79793166999999700;stroke-linecap:round;stroke-miterlimit:4;stroke-opacity:1;stroke-dasharray:none" sodipodi:type="arc"/>
    <path sodipodi:type="arc" style="fill:none;stroke:#ffcc00;stroke-width:35.79793166999999700;stroke-linecap:round;stroke-miterlimit:4;stroke-opacity:1;stroke-dasharray:none" id="path3817" sodipodi:cx="-1142.1215" sodipodi:cy="112.41277" sodipodi:rx="43.753666" sodipodi:ry="43.753666" d="m -1098.3678,112.41277 c 0,24.16449 -19.5892,43.75367 -43.7537,43.75367 -24.1644,0 -43.7536,-19.58918 -43.7536,-43.75367 0,-24.164479 19.5892,-43.753663 43.7536,-43.753663 24.1645,0 43.7537,19.589184 43.7537,43.753663 z" transform="matrix(0.87295546,0,0,0.87295546,945.72382,-288.97673)"/>
    <path transform="matrix(0.87295546,0,0,0.87295546,1071.7326,-368.11014)" d="m -1098.3678,112.41277 a 43.753666,43.753666 0 1 1 -87.5073,0 43.753666,43.753666 0 1 1 87.5073,0 z" sodipodi:ry="43.753666" sodipodi:rx="43.753666" sodipodi:cy="112.41277" sodipodi:cx="-1142.1215" id="path3819" style="fill:none;stroke:#ffcc00;stroke-width:35.79793166999999700;stroke-linecap:round;stroke-miterlimit:4;stroke-opacity:1;stroke-dasharray:none" sodipodi:type="arc"/>
    <path sodipodi:type="arc" style="fill:none;stroke:#ffcc00;stroke-width:35.79793166999999700;stroke-linecap:round;stroke-miterlimit:4;stroke-opacity:1;stroke-dasharray:none" id="path3821" sodipodi:cx="-1142.1215" sodipodi:cy="112.41277" sodipodi:rx="43.753666" sodipodi:ry="43.753666" d="m -1098.3678,112.41277 a 43.753666,43.753666 0 1 1 -87.5073,0 43.753666,43.753666 0 1 1 87.5073,0 z" transform="matrix(0.87295546,0,0,0.87295546,1312.7123,-363.25305)"/>
    <path transform="matrix(0.87295546,0,0,0.87295546,773.72666,33.895142)" d="m -1098.3678,112.41277 c 0,24.16449 -19.5892,43.75367 -43.7537,43.75367 -24.1644,0 -43.7536,-19.58918 -43.7536,-43.75367 0,-24.164479 19.5892,-43.753663 43.7536,-43.753663 24.1645,0 43.7537,19.589184 43.7537,43.753663 z" sodipodi:ry="43.753666" sodipodi:rx="43.753666" sodipodi:cy="112.41277" sodipodi:cx="-1142.1215" id="path3823" style="fill:none;stroke:#ffcc00;stroke-width:35.79793166999999700;stroke-linecap:round;stroke-miterlimit:4;stroke-opacity:1;stroke-dasharray:none" sodipodi:type="arc"/>
    <path sodipodi:type="arc" style="fill:none;stroke:#ffcc00;stroke-width:35.79793166999999700;stroke-linecap:round;stroke-miterlimit:4;stroke-opacity:1;stroke-dasharray:none" id="path3825" sodipodi:cx="-1142.1215" sodipodi:cy="112.41277" sodipodi:rx="43.753666" sodipodi:ry="43.753666" d="m -1098.3678,112.41277 c 0,24.16449 -19.5892,43.75367 -43.7537,43.75367 -24.1644,0 -43.7536,-19.58918 -43.7536,-43.75367 0,-24.164479 19.5892,-43.753663 43.7536,-43.753663 24.1645,0 43.7537,19.589184 43.7537,43.753663 z" transform="matrix(0.87295546,0,0,0.87295546,710.35928,287.36465)"/>
    <path transform="matrix(0.87295546,0,0,0.87295546,1256.5257,-119.99705)" d="m -1098.3678,112.41277 c 0,24.16449 -19.5892,43.75367 -43.7537,43.75367 -24.1644,0 -43.7536,-19.58918 -43.7536,-43.75367 0,-24.164479 19.5892,-43.753663 43.7536,-43.753663 24.1645,0 43.7537,19.589184 43.7537,43.753663 z" sodipodi:ry="43.753666" sodipodi:rx="43.753666" sodipodi:cy="112.41277" sodipodi:cx="-1142.1215" id="path3827" style="fill:none;stroke:#ffcc00;stroke-width:35.79793166999999700;stroke-linecap:round;stroke-miterlimit:4;stroke-opacity:1;stroke-dasharray:none" sodipodi:type="arc"/>
    <path sodipodi:type="arc" style="fill:none;stroke:#ffcc00;stroke-width:35.79793166999999700;stroke-linecap:round;stroke-miterlimit:4;stroke-opacity:1;stroke-dasharray:none" id="path3829" sodipodi:cx="-1142.1215" sodipodi:cy="112.41277" sodipodi:rx="43.753666" sodipodi:ry="43.753666" d="m -1098.3678,112.41277 c 0,24.16449 -19.5892,43.75367 -43.7537,43.75367 -24.1644,0 -43.7536,-19.58918 -43.7536,-43.75367 0,-24.164479 19.5892,-43.753663 43.7536,-43.753663 24.1645,0 43.7537,19.589184 43.7537,43.753663 z" transform="matrix(0.87295546,0,0,0.87295546,1385.0871,-10.307894)"/>
    <path transform="matrix(0.87295546,0,0,0.87295546,1533.638,228.66532)" d="m -1098.3678,112.41277 c 0,24.16449 -19.5892,43.75367 -43.7537,43.75367 -24.1644,0 -43.7536,-19.58918 -43.7536,-43.75367 0,-24.164479 19.5892,-43.753663 43.7536,-43.753663 24.1645,0 43.7537,19.589184 43.7537,43.753663 z" sodipodi:ry="43.753666" sodipodi:rx="43.753666" sodipodi:cy="112.41277" sodipodi:cx="-1142.1215" id="path3847" style="fill:none;stroke:#ffcc00;stroke-width:35.79793166999999700;stroke-linecap:round;stroke-miterlimit:4;stroke-opacity:1;stroke-dasharray:none" sodipodi:type="arc"/>
    <path transform="matrix(0.87295546,0,0,0.87295546,1590.1391,-11.05879)" d="m -1098.3678,112.41277 a 43.753666,43.753666 0 1 1 -87.5073,0 43.753666,43.753666 0 1 1 87.5073,0 z" sodipodi:ry="43.753666" sodipodi:rx="43.753666" sodipodi:cy="112.41277" sodipodi:cx="-1142.1215" id="path3853" style="fill:none;stroke:#ffcc00;stroke-width:35.79793166999999700;stroke-linecap:round;stroke-miterlimit:4;stroke-opacity:1;stroke-dasharray:none" sodipodi:type="arc"/>
  </g>
</svg>